<svg width="24" height="24" viewBox="0 0 20 20" fill="none" xmlns="http://www.w3.org/2000/svg">
    <path d="M10.0018 12.8C9.23838 12.8 8.50621 12.505 7.96637 11.9799C7.42654 11.4548 7.12327 10.7426 7.12327 10C7.12327 9.25739 7.42654 8.5452 7.96637 8.0201C8.50621 7.495 9.23838 7.2 10.0018 7.2C10.7653 7.2 11.4974 7.495 12.0373 8.0201C12.5771 8.5452 12.8804 9.25739 12.8804 10C12.8804 10.7426 12.5771 11.4548 12.0373 11.9799C11.4974 12.505 10.7653 12.8 10.0018 12.8ZM16.1126 10.776C16.1455 10.52 16.1701 10.264 16.1701 10C16.1701 9.736 16.1455 9.472 16.1126 9.2L17.8479 7.896C18.0042 7.776 18.0453 7.56 17.9466 7.384L16.3017 4.616C16.203 4.44 15.981 4.368 15.8 4.44L13.7522 5.24C13.3245 4.928 12.8804 4.656 12.3622 4.456L12.0579 2.336C12.025 2.144 11.8523 2 11.6467 2H8.35693C8.15132 2 7.97861 2.144 7.94571 2.336L7.64141 4.456C7.12327 4.656 6.67915 4.928 6.25148 5.24L4.2036 4.44C4.02266 4.368 3.8006 4.44 3.70191 4.616L2.05702 7.384C1.9501 7.56 1.99945 7.776 2.15571 7.896L3.89107 9.2C3.85817 9.472 3.8335 9.736 3.8335 10C3.8335 10.264 3.85817 10.52 3.89107 10.776L2.15571 12.104C1.99945 12.224 1.9501 12.44 2.05702 12.616L3.70191 15.384C3.8006 15.56 4.02266 15.624 4.2036 15.56L6.25148 14.752C6.67915 15.072 7.12327 15.344 7.64141 15.544L7.94571 17.664C7.97861 17.856 8.15132 18 8.35693 18H11.6467C11.8523 18 12.025 17.856 12.0579 17.664L12.3622 15.544C12.8804 15.336 13.3245 15.072 13.7522 14.752L15.8 15.56C15.981 15.624 16.203 15.56 16.3017 15.384L17.9466 12.616C18.0453 12.44 18.0042 12.224 17.8479 12.104L16.1126 10.776Z" fill="currentColor"/>
</svg>
